<?xml version="1.0" encoding="UTF-8" standalone="no"?>
<!-- Created with Inkscape (http://www.inkscape.org/) -->

<svg
   xmlns:dc="http://purl.org/dc/elements/1.1/"
   xmlns:cc="http://creativecommons.org/ns#"
   xmlns:rdf="http://www.w3.org/1999/02/22-rdf-syntax-ns#"
   xmlns:svg="http://www.w3.org/2000/svg"
   xmlns="http://www.w3.org/2000/svg"
   xmlns:sodipodi="http://sodipodi.sourceforge.net/DTD/sodipodi-0.dtd"
   xmlns:inkscape="http://www.inkscape.org/namespaces/inkscape"
   width="16"
   height="16"
   viewBox="0 0 16 16"
   version="1.1"
   id="svg8"
   inkscape:version="0.92.3 (2405546, 2018-03-11)"
   sodipodi:docname="completion-statement.svg">
  <defs
     id="defs2" />
  <sodipodi:namedview
     id="base"
     pagecolor="#ffffff"
     bordercolor="#666666"
     borderopacity="1.0"
     inkscape:pageopacity="0.0"
     inkscape:pageshadow="2"
     inkscape:zoom="22.627417"
     inkscape:cx="1.0381523"
     inkscape:cy="10.075437"
     inkscape:document-units="px"
     inkscape:current-layer="g4555"
     showgrid="true"
     units="px"
     showborder="true"
     inkscape:window-width="1323"
     inkscape:window-height="713"
     inkscape:window-x="43"
     inkscape:window-y="27"
     inkscape:window-maximized="1"
     inkscape:snap-bbox="true"
     inkscape:bbox-nodes="true"
     inkscape:snap-nodes="false">
    <inkscape:grid
       type="xygrid"
       id="grid817" />
  </sodipodi:namedview>
  <metadata
     id="metadata5">
    <rdf:RDF>
      <cc:Work
         rdf:about="">
        <dc:format>image/svg+xml</dc:format>
        <dc:type
           rdf:resource="http://purl.org/dc/dcmitype/StillImage" />
        <dc:title></dc:title>
      </cc:Work>
    </rdf:RDF>
  </metadata>
  <g
     inkscape:label="Layer 1"
     inkscape:groupmode="layer"
     id="layer1"
     transform="translate(0,-292.76666)">
    <g
       id="g4555"
       transform="matrix(3.7795276,0,0,3.7795166,-6.4364968e-8,-813.74982)">
      <rect
         ry="0.5291667"
         rx="0.5291667"
         y="293.03125"
         x="0.26458335"
         height="3.7041774"
         width="3.7041667"
         id="rect815"
         style="fill:#7e57c2;fill-opacity:1;stroke:none;stroke-width:0.30950487" />
      <rect
         style="fill:#9567e5;fill-opacity:1;stroke:none;stroke-width:0.2652896"
         id="rect4522"
         width="3.1750002"
         height="3.1750019"
         x="0.52916664"
         y="293.29584"
         rx="0.26458335"
         ry="0.26458335" />
      <g
         aria-label="%"
         style="font-style:normal;font-variant:normal;font-weight:normal;font-stretch:normal;font-size:10.58333302px;line-height:1.25;font-family:'Liberation Serif';-inkscape-font-specification:'Liberation Serif';letter-spacing:0px;word-spacing:0px;fill:#ffffff;fill-opacity:1;stroke:none;stroke-width:0.26458332"
         id="text4530">
        <path
           d="M 1.4242024,295.94159 H 1.1529011 l 1.4448731,-2.09755 H 2.872176 Z m 0.085266,-2.10995 q 0.4387329,0 0.4387329,0.5209 0,0.2589 -0.1131714,0.39377 -0.1131713,0.13488 -0.3317626,0.13488 -0.2185914,0 -0.3317627,-0.13333 -0.1131714,-0.13332 -0.1131714,-0.39532 0,-0.2589 0.1085205,-0.38912 0.1085205,-0.13178 0.3426147,-0.13178 z m 0.1658814,0.5209 q 0,-0.16588 -0.041858,-0.23875 -0.040308,-0.0729 -0.1271241,-0.0729 -0.086816,0 -0.1317749,0.0713 -0.043408,0.0698 -0.043408,0.2403 0,0.16743 0.044959,0.24029 0.044958,0.0713 0.1302246,0.0713 0.168982,0 0.168982,-0.31161 z m 0.8511108,0.5581 q 0.4387329,0 0.4387329,0.5209 0,0.2589 -0.1131714,0.39378 -0.1131714,0.13487 -0.3317627,0.13487 -0.2185913,0 -0.3317627,-0.13332 -0.1131714,-0.13333 -0.1131714,-0.39533 0,-0.2589 0.1085206,-0.38912 0.1085205,-0.13178 0.3426147,-0.13178 z m 0.1658813,0.5209 q 0,-0.16588 -0.041858,-0.23874 -0.040308,-0.0729 -0.127124,-0.0729 -0.086816,0 -0.1317749,0.0713 -0.043408,0.0698 -0.043408,0.24029 0,0.16743 0.044958,0.2403 0.044958,0.0713 0.1302246,0.0713 0.1689819,0 0.1689819,-0.31161 z"
           style="font-style:normal;font-variant:normal;font-weight:bold;font-stretch:normal;font-size:3.17499995px;font-family:'Liberation Mono';-inkscape-font-specification:'Liberation Mono Bold';fill:#ffffff;fill-opacity:1;stroke-width:0.26458332"
           id="path4557" />
      </g>
    </g>
  </g>
</svg>
